<?xml version="1.0" encoding="UTF-8" ?>
<svg version="1.1" width="32" height="32" xmlns="http://www.w3.org/2000/svg" shape-rendering="crispEdges">
<rect x="17" y="5" width="1" height="1" fill="#32222C" />
<rect x="18" y="5" width="1" height="1" fill="#32222C" />
<rect x="16" y="6" width="1" height="1" fill="#32222C" />
<rect x="17" y="6" width="1" height="1" fill="#FECD81" />
<rect x="18" y="6" width="1" height="1" fill="#FBCF86" />
<rect x="19" y="6" width="1" height="1" fill="#32222C" />
<rect x="13" y="7" width="1" height="1" fill="#32222C" />
<rect x="15" y="7" width="1" height="1" fill="#32222C" />
<rect x="16" y="7" width="1" height="1" fill="#FDCC87" />
<rect x="17" y="7" width="1" height="1" fill="#FDE0B4" />
<rect x="18" y="7" width="1" height="1" fill="#FBE4B0" />
<rect x="19" y="7" width="1" height="1" fill="#FECD8B" />
<rect x="20" y="7" width="1" height="1" fill="#32222C" />
<rect x="21" y="7" width="1" height="1" fill="#32222C" />
<rect x="12" y="8" width="1" height="1" fill="#32222C" />
<rect x="13" y="8" width="1" height="1" fill="#FDFDFB" />
<rect x="14" y="8" width="1" height="1" fill="#32222C" />
<rect x="15" y="8" width="1" height="1" fill="#32222C" />
<rect x="16" y="8" width="1" height="1" fill="#FFD08C" />
<rect x="17" y="8" width="1" height="1" fill="#FDE0B4" />
<rect x="18" y="8" width="1" height="1" fill="#FFD087" />
<rect x="19" y="8" width="1" height="1" fill="#FFCD88" />
<rect x="20" y="8" width="1" height="1" fill="#FECB7C" />
<rect x="21" y="8" width="1" height="1" fill="#FFCF83" />
<rect x="22" y="8" width="1" height="1" fill="#32222C" />
<rect x="12" y="9" width="1" height="1" fill="#32222C" />
<rect x="13" y="9" width="1" height="1" fill="#FFFFFF" />
<rect x="14" y="9" width="1" height="1" fill="#FFFFFF" />
<rect x="15" y="9" width="1" height="1" fill="#FEFCFD" />
<rect x="16" y="9" width="1" height="1" fill="#E19051" />
<rect x="17" y="9" width="1" height="1" fill="#DFB676" />
<rect x="18" y="9" width="1" height="1" fill="#FFD082" />
<rect x="19" y="9" width="1" height="1" fill="#FEDFB0" />
<rect x="20" y="9" width="1" height="1" fill="#FFE0B2" />
<rect x="21" y="9" width="1" height="1" fill="#FFE1B3" />
<rect x="22" y="9" width="1" height="1" fill="#FED083" />
<rect x="23" y="9" width="1" height="1" fill="#32222C" />
<rect x="12" y="10" width="1" height="1" fill="#32222C" />
<rect x="13" y="10" width="1" height="1" fill="#E3E3E3" />
<rect x="14" y="10" width="1" height="1" fill="#F2F2F2" />
<rect x="15" y="10" width="1" height="1" fill="#FBFDFC" />
<rect x="16" y="10" width="1" height="1" fill="#E0E0E0" />
<rect x="17" y="10" width="1" height="1" fill="#FCFFF8" />
<rect x="18" y="10" width="1" height="1" fill="#E79146" />
<rect x="19" y="10" width="1" height="1" fill="#E1B576" />
<rect x="20" y="10" width="1" height="1" fill="#FED082" />
<rect x="21" y="10" width="1" height="1" fill="#FFCF83" />
<rect x="22" y="10" width="1" height="1" fill="#FFCD84" />
<rect x="23" y="10" width="1" height="1" fill="#FFDFAA" />
<rect x="24" y="10" width="1" height="1" fill="#32222C" />
<rect x="11" y="11" width="1" height="1" fill="#32222C" />
<rect x="12" y="11" width="1" height="1" fill="#FFFFFF" />
<rect x="13" y="11" width="1" height="1" fill="#FEFEFE" />
<rect x="14" y="11" width="1" height="1" fill="#F3F3F3" />
<rect x="15" y="11" width="1" height="1" fill="#E7E7E7" />
<rect x="16" y="11" width="1" height="1" fill="#E2E2E2" />
<rect x="17" y="11" width="1" height="1" fill="#F1EFF4" />
<rect x="18" y="11" width="1" height="1" fill="#FBB553" />
<rect x="19" y="11" width="1" height="1" fill="#E98C46" />
<rect x="20" y="11" width="1" height="1" fill="#E1B173" />
<rect x="21" y="11" width="1" height="1" fill="#FFE2B3" />
<rect x="22" y="11" width="1" height="1" fill="#FCE2B1" />
<rect x="23" y="11" width="1" height="1" fill="#F9CE89" />
<rect x="24" y="11" width="1" height="1" fill="#FED17E" />
<rect x="25" y="11" width="1" height="1" fill="#32222C" />
<rect x="10" y="12" width="1" height="1" fill="#32222C" />
<rect x="11" y="12" width="1" height="1" fill="#F2F2F2" />
<rect x="12" y="12" width="1" height="1" fill="#FFFFFF" />
<rect x="13" y="12" width="1" height="1" fill="#E3E3E3" />
<rect x="14" y="12" width="1" height="1" fill="#E1E1E1" />
<rect x="15" y="12" width="1" height="1" fill="#CECECE" />
<rect x="16" y="12" width="1" height="1" fill="#F1F1F1" />
<rect x="17" y="12" width="1" height="1" fill="#E3E3E3" />
<rect x="18" y="12" width="1" height="1" fill="#FCFFFD" />
<rect x="19" y="12" width="1" height="1" fill="#FABB54" />
<rect x="20" y="12" width="1" height="1" fill="#FEC367" />
<rect x="21" y="12" width="1" height="1" fill="#DEB678" />
<rect x="22" y="12" width="1" height="1" fill="#FFCF87" />
<rect x="23" y="12" width="1" height="1" fill="#FFD082" />
<rect x="24" y="12" width="1" height="1" fill="#FFCE82" />
<rect x="25" y="12" width="1" height="1" fill="#32222C" />
<rect x="10" y="13" width="1" height="1" fill="#32222C" />
<rect x="11" y="13" width="1" height="1" fill="#E6E2DF" />
<rect x="12" y="13" width="1" height="1" fill="#E2E2E2" />
<rect x="13" y="13" width="1" height="1" fill="#CECECE" />
<rect x="14" y="13" width="1" height="1" fill="#F2F2F2" />
<rect x="15" y="13" width="1" height="1" fill="#FFFFFF" />
<rect x="16" y="13" width="1" height="1" fill="#E3E3E3" />
<rect x="17" y="13" width="1" height="1" fill="#E3E3E3" />
<rect x="18" y="13" width="1" height="1" fill="#F2F3ED" />
<rect x="19" y="13" width="1" height="1" fill="#FAB857" />
<rect x="20" y="13" width="1" height="1" fill="#FAB653" />
<rect x="21" y="13" width="1" height="1" fill="#E78E52" />
<rect x="22" y="13" width="1" height="1" fill="#E1B375" />
<rect x="23" y="13" width="1" height="1" fill="#FDE2B7" />
<rect x="24" y="13" width="1" height="1" fill="#FFDEB1" />
<rect x="25" y="13" width="1" height="1" fill="#FFCD84" />
<rect x="26" y="13" width="1" height="1" fill="#32222C" />
<rect x="9" y="14" width="1" height="1" fill="#32222C" />
<rect x="10" y="14" width="1" height="1" fill="#E8AE4D" />
<rect x="11" y="14" width="1" height="1" fill="#CCCDC8" />
<rect x="12" y="14" width="1" height="1" fill="#F3F1F2" />
<rect x="13" y="14" width="1" height="1" fill="#F3F3F3" />
<rect x="14" y="14" width="1" height="1" fill="#FFFFFF" />
<rect x="15" y="14" width="1" height="1" fill="#E5E5E5" />
<rect x="16" y="14" width="1" height="1" fill="#D3D3D3" />
<rect x="17" y="14" width="1" height="1" fill="#F3F3F3" />
<rect x="18" y="14" width="1" height="1" fill="#CCCDC8" />
<rect x="19" y="14" width="1" height="1" fill="#E1A447" />
<rect x="20" y="14" width="1" height="1" fill="#FBB64F" />
<rect x="21" y="14" width="1" height="1" fill="#FDC669" />
<rect x="22" y="14" width="1" height="1" fill="#FFCF85" />
<rect x="23" y="14" width="1" height="1" fill="#FDE3B2" />
<rect x="24" y="14" width="1" height="1" fill="#FFDEB1" />
<rect x="25" y="14" width="1" height="1" fill="#FAE3AF" />
<rect x="26" y="14" width="1" height="1" fill="#FFCE7F" />
<rect x="27" y="14" width="1" height="1" fill="#32222C" />
<rect x="8" y="15" width="1" height="1" fill="#32222C" />
<rect x="9" y="15" width="1" height="1" fill="#FCBB45" />
<rect x="10" y="15" width="1" height="1" fill="#FCB950" />
<rect x="11" y="15" width="1" height="1" fill="#DFA34B" />
<rect x="12" y="15" width="1" height="1" fill="#CFCECC" />
<rect x="13" y="15" width="1" height="1" fill="#CECECE" />
<rect x="14" y="15" width="1" height="1" fill="#E1E1E1" />
<rect x="15" y="15" width="1" height="1" fill="#CDCDCD" />
<rect x="16" y="15" width="1" height="1" fill="#CECECE" />
<rect x="17" y="15" width="1" height="1" fill="#CECED0" />
<rect x="18" y="15" width="1" height="1" fill="#DEA439" />
<rect x="19" y="15" width="1" height="1" fill="#F9BA51" />
<rect x="20" y="15" width="1" height="1" fill="#FCB857" />
<rect x="21" y="15" width="1" height="1" fill="#F9BA51" />
<rect x="22" y="15" width="1" height="1" fill="#E7904B" />
<rect x="23" y="15" width="1" height="1" fill="#E3B26F" />
<rect x="24" y="15" width="1" height="1" fill="#FFCF86" />
<rect x="25" y="15" width="1" height="1" fill="#FDE2B5" />
<rect x="26" y="15" width="1" height="1" fill="#FFCF82" />
<rect x="27" y="15" width="1" height="1" fill="#32222C" />
<rect x="7" y="16" width="1" height="1" fill="#32222C" />
<rect x="8" y="16" width="1" height="1" fill="#FAB953" />
<rect x="9" y="16" width="1" height="1" fill="#FCB951" />
<rect x="10" y="16" width="1" height="1" fill="#FAB953" />
<rect x="11" y="16" width="1" height="1" fill="#FBBA56" />
<rect x="12" y="16" width="1" height="1" fill="#DAA348" />
<rect x="13" y="16" width="1" height="1" fill="#E9A951" />
<rect x="14" y="16" width="1" height="1" fill="#E0A34A" />
<rect x="15" y="16" width="1" height="1" fill="#DFA44A" />
<rect x="16" y="16" width="1" height="1" fill="#E8A94C" />
<rect x="17" y="16" width="1" height="1" fill="#E6A94E" />
<rect x="18" y="16" width="1" height="1" fill="#FBB651" />
<rect x="19" y="16" width="1" height="1" fill="#F9BA51" />
<rect x="20" y="16" width="1" height="1" fill="#FCB951" />
<rect x="21" y="16" width="1" height="1" fill="#FCB951" />
<rect x="22" y="16" width="1" height="1" fill="#FCC369" />
<rect x="23" y="16" width="1" height="1" fill="#FFC567" />
<rect x="24" y="16" width="1" height="1" fill="#E0B477" />
<rect x="25" y="16" width="1" height="1" fill="#FCD280" />
<rect x="26" y="16" width="1" height="1" fill="#E5B670" />
<rect x="27" y="16" width="1" height="1" fill="#32222C" />
<rect x="6" y="17" width="1" height="1" fill="#32222C" />
<rect x="7" y="17" width="1" height="1" fill="#FBC45F" />
<rect x="8" y="17" width="1" height="1" fill="#FAB953" />
<rect x="9" y="17" width="1" height="1" fill="#FCB951" />
<rect x="10" y="17" width="1" height="1" fill="#F8BA53" />
<rect x="11" y="17" width="1" height="1" fill="#FABA50" />
<rect x="12" y="17" width="1" height="1" fill="#FCB853" />
<rect x="13" y="17" width="1" height="1" fill="#FCB951" />
<rect x="14" y="17" width="1" height="1" fill="#F9BA51" />
<rect x="15" y="17" width="1" height="1" fill="#FDB851" />
<rect x="16" y="17" width="1" height="1" fill="#F9BA53" />
<rect x="17" y="17" width="1" height="1" fill="#FAB951" />
<rect x="18" y="17" width="1" height="1" fill="#FCC568" />
<rect x="19" y="17" width="1" height="1" fill="#FCC467" />
<rect x="20" y="17" width="1" height="1" fill="#DA8948" />
<rect x="21" y="17" width="1" height="1" fill="#E2924B" />
<rect x="22" y="17" width="1" height="1" fill="#CB8046" />
<rect x="23" y="17" width="1" height="1" fill="#E98D4C" />
<rect x="24" y="17" width="1" height="1" fill="#D1A86A" />
<rect x="25" y="17" width="1" height="1" fill="#EAB16C" />
<rect x="26" y="17" width="1" height="1" fill="#32222C" />
<rect x="5" y="18" width="1" height="1" fill="#32222C" />
<rect x="6" y="18" width="1" height="1" fill="#FFC072" />
<rect x="7" y="18" width="1" height="1" fill="#FCB855" />
<rect x="8" y="18" width="1" height="1" fill="#FEC56C" />
<rect x="9" y="18" width="1" height="1" fill="#FCB853" />
<rect x="10" y="18" width="1" height="1" fill="#FCC46D" />
<rect x="11" y="18" width="1" height="1" fill="#F8B655" />
<rect x="12" y="18" width="1" height="1" fill="#FFC36B" />
<rect x="13" y="18" width="1" height="1" fill="#FCC568" />
<rect x="14" y="18" width="1" height="1" fill="#C98348" />
<rect x="15" y="18" width="1" height="1" fill="#E5914B" />
<rect x="16" y="18" width="1" height="1" fill="#E4914F" />
<rect x="17" y="18" width="1" height="1" fill="#DB8749" />
<rect x="18" y="18" width="1" height="1" fill="#C98242" />
<rect x="19" y="18" width="1" height="1" fill="#E28D4D" />
<rect x="20" y="18" width="1" height="1" fill="#E4914F" />
<rect x="21" y="18" width="1" height="1" fill="#E29150" />
<rect x="22" y="18" width="1" height="1" fill="#DB8749" />
<rect x="23" y="18" width="1" height="1" fill="#E58E47" />
<rect x="24" y="18" width="1" height="1" fill="#D0A964" />
<rect x="25" y="18" width="1" height="1" fill="#32222C" />
<rect x="4" y="19" width="1" height="1" fill="#32222C" />
<rect x="5" y="19" width="1" height="1" fill="#FFC86B" />
<rect x="6" y="19" width="1" height="1" fill="#FFC86B" />
<rect x="7" y="19" width="1" height="1" fill="#FFC96F" />
<rect x="8" y="19" width="1" height="1" fill="#EC9051" />
<rect x="9" y="19" width="1" height="1" fill="#E18E4C" />
<rect x="10" y="19" width="1" height="1" fill="#E88C4D" />
<rect x="11" y="19" width="1" height="1" fill="#E18E4A" />
<rect x="12" y="19" width="1" height="1" fill="#DE8549" />
<rect x="13" y="19" width="1" height="1" fill="#E78E4C" />
<rect x="14" y="19" width="1" height="1" fill="#E69351" />
<rect x="15" y="19" width="1" height="1" fill="#C57F44" />
<rect x="16" y="19" width="1" height="1" fill="#E4914B" />
<rect x="17" y="19" width="1" height="1" fill="#E5924C" />
<rect x="18" y="19" width="1" height="1" fill="#E39148" />
<rect x="19" y="19" width="1" height="1" fill="#D98847" />
<rect x="20" y="19" width="1" height="1" fill="#C98147" />
<rect x="21" y="19" width="1" height="1" fill="#E0904B" />
<rect x="22" y="19" width="1" height="1" fill="#E4914B" />
<rect x="23" y="19" width="1" height="1" fill="#C88046" />
<rect x="24" y="19" width="1" height="1" fill="#E0B873" />
<rect x="25" y="19" width="1" height="1" fill="#32222C" />
<rect x="4" y="20" width="1" height="1" fill="#32222C" />
<rect x="5" y="20" width="1" height="1" fill="#DC8747" />
<rect x="6" y="20" width="1" height="1" fill="#CC8044" />
<rect x="7" y="20" width="1" height="1" fill="#E78D4E" />
<rect x="8" y="20" width="1" height="1" fill="#E89050" />
<rect x="9" y="20" width="1" height="1" fill="#CB7F45" />
<rect x="10" y="20" width="1" height="1" fill="#D8864E" />
<rect x="11" y="20" width="1" height="1" fill="#E49050" />
<rect x="12" y="20" width="1" height="1" fill="#E4914B" />
<rect x="13" y="20" width="1" height="1" fill="#E4914F" />
<rect x="14" y="20" width="1" height="1" fill="#D98847" />
<rect x="15" y="20" width="1" height="1" fill="#C98348" />
<rect x="16" y="20" width="1" height="1" fill="#D98847" />
<rect x="17" y="20" width="1" height="1" fill="#E4914F" />
<rect x="18" y="20" width="1" height="1" fill="#E49249" />
<rect x="19" y="20" width="1" height="1" fill="#C88045" />
<rect x="20" y="20" width="1" height="1" fill="#CB693C" />
<rect x="21" y="20" width="1" height="1" fill="#CB693A" />
<rect x="22" y="20" width="1" height="1" fill="#CD683E" />
<rect x="23" y="20" width="1" height="1" fill="#D1653E" />
<rect x="24" y="20" width="1" height="1" fill="#D4A766" />
<rect x="25" y="20" width="1" height="1" fill="#32222C" />
<rect x="4" y="21" width="1" height="1" fill="#32222C" />
<rect x="5" y="21" width="1" height="1" fill="#E9904E" />
<rect x="6" y="21" width="1" height="1" fill="#E5914B" />
<rect x="7" y="21" width="1" height="1" fill="#E4914F" />
<rect x="8" y="21" width="1" height="1" fill="#E5914B" />
<rect x="9" y="21" width="1" height="1" fill="#D98846" />
<rect x="10" y="21" width="1" height="1" fill="#E5914B" />
<rect x="11" y="21" width="1" height="1" fill="#C98146" />
<rect x="12" y="21" width="1" height="1" fill="#D8884B" />
<rect x="13" y="21" width="1" height="1" fill="#E4914F" />
<rect x="14" y="21" width="1" height="1" fill="#CD663D" />
<rect x="15" y="21" width="1" height="1" fill="#CD663D" />
<rect x="16" y="21" width="1" height="1" fill="#D0663E" />
<rect x="17" y="21" width="1" height="1" fill="#D0663E" />
<rect x="18" y="21" width="1" height="1" fill="#CB693C" />
<rect x="19" y="21" width="1" height="1" fill="#CE673C" />
<rect x="20" y="21" width="1" height="1" fill="#D0A86B" />
<rect x="21" y="21" width="1" height="1" fill="#DDB874" />
<rect x="22" y="21" width="1" height="1" fill="#D2A967" />
<rect x="23" y="21" width="1" height="1" fill="#D0AB67" />
<rect x="24" y="21" width="1" height="1" fill="#32222C" />
<rect x="4" y="22" width="1" height="1" fill="#32222C" />
<rect x="5" y="22" width="1" height="1" fill="#CD8048" />
<rect x="6" y="22" width="1" height="1" fill="#D68647" />
<rect x="7" y="22" width="1" height="1" fill="#E1914A" />
<rect x="8" y="22" width="1" height="1" fill="#D0673A" />
<rect x="9" y="22" width="1" height="1" fill="#CC673B" />
<rect x="10" y="22" width="1" height="1" fill="#CC673D" />
<rect x="11" y="22" width="1" height="1" fill="#CC653A" />
<rect x="12" y="22" width="1" height="1" fill="#CA693C" />
<rect x="13" y="22" width="1" height="1" fill="#C9683E" />
<rect x="14" y="22" width="1" height="1" fill="#E3B47E" />
<rect x="15" y="22" width="1" height="1" fill="#D7A66B" />
<rect x="16" y="22" width="1" height="1" fill="#D1A86A" />
<rect x="17" y="22" width="1" height="1" fill="#E2B57E" />
<rect x="18" y="22" width="1" height="1" fill="#D2A770" />
<rect x="19" y="22" width="1" height="1" fill="#E0AB5F" />
<rect x="20" y="22" width="1" height="1" fill="#32222C" />
<rect x="21" y="22" width="1" height="1" fill="#32222C" />
<rect x="22" y="22" width="1" height="1" fill="#32222C" />
<rect x="23" y="22" width="1" height="1" fill="#32222C" />
<rect x="4" y="23" width="1" height="1" fill="#32222C" />
<rect x="5" y="23" width="1" height="1" fill="#D0673A" />
<rect x="6" y="23" width="1" height="1" fill="#CE673A" />
<rect x="7" y="23" width="1" height="1" fill="#CD683C" />
<rect x="8" y="23" width="1" height="1" fill="#D0A769" />
<rect x="9" y="23" width="1" height="1" fill="#E3B278" />
<rect x="10" y="23" width="1" height="1" fill="#E2B572" />
<rect x="11" y="23" width="1" height="1" fill="#E3B673" />
<rect x="12" y="23" width="1" height="1" fill="#D5A867" />
<rect x="13" y="23" width="1" height="1" fill="#D1A96B" />
<rect x="14" y="23" width="1" height="1" fill="#32222C" />
<rect x="15" y="23" width="1" height="1" fill="#32222C" />
<rect x="16" y="23" width="1" height="1" fill="#32222C" />
<rect x="17" y="23" width="1" height="1" fill="#32222C" />
<rect x="18" y="23" width="1" height="1" fill="#32222C" />
<rect x="19" y="23" width="1" height="1" fill="#32222C" />
<rect x="4" y="24" width="1" height="1" fill="#32222C" />
<rect x="5" y="24" width="1" height="1" fill="#D3AB66" />
<rect x="6" y="24" width="1" height="1" fill="#CEAA6E" />
<rect x="7" y="24" width="1" height="1" fill="#CBAD67" />
<rect x="8" y="24" width="1" height="1" fill="#32222C" />
<rect x="9" y="24" width="1" height="1" fill="#32222C" />
<rect x="10" y="24" width="1" height="1" fill="#32222C" />
<rect x="11" y="24" width="1" height="1" fill="#32222C" />
<rect x="12" y="24" width="1" height="1" fill="#32222C" />
<rect x="13" y="24" width="1" height="1" fill="#32222C" />
<rect x="5" y="25" width="1" height="1" fill="#32222C" />
<rect x="6" y="25" width="1" height="1" fill="#32222C" />
<rect x="7" y="25" width="1" height="1" fill="#32222C" />
</svg>